HIERARCHY
ROOT mPelvis
{
	OFFSET 0.000000 1.067000 -0.000000
	CHANNELS 6 Xposition Yposition Zposition Xrotation Yrotation Zrotation
	JOINT mTorso
	{
		OFFSET 0.000000 0.084000 -0.000000
		CHANNELS 3 Xrotation Yrotation Zrotation
		JOINT mChest
		{
			OFFSET 0.000000 0.205000 -0.015000
			CHANNELS 3 Xrotation Yrotation Zrotation
			JOINT mNeck
			{
				OFFSET 0.000000 0.251000 -0.010000
				CHANNELS 3 Xrotation Yrotation Zrotation
				JOINT mHead
				{
					OFFSET 0.000000 0.076000 0.000000
					CHANNELS 3 Xrotation Yrotation Zrotation
					JOINT mSkull
					{
						OFFSET 0.000000 0.079000 0.000000
						CHANNELS 3 Xrotation Yrotation Zrotation
						End Site
						{
							OFFSET -0.000000 -0.100000 0.000000
						}
					}
					JOINT mEyeRight
					{
						OFFSET -0.036000 0.079000 0.098000
						CHANNELS 3 Xrotation Yrotation Zrotation
						End Site
						{
							OFFSET -0.000000 -0.100000 0.000000
						}
					}
					JOINT mEyeLeft
					{
						OFFSET 0.036000 0.079000 0.098000
						CHANNELS 3 Xrotation Yrotation Zrotation
						End Site
						{
							OFFSET -0.000000 -0.100000 0.000000
						}
					}
					JOINT HEAD
					{
						OFFSET 0.000000 0.060000 0.020000
						CHANNELS 3 Xrotation Yrotation Zrotation
						End Site
						{
							OFFSET -0.000000 -0.100000 0.000000
						}
					}
				}
				JOINT NECK
				{
					OFFSET 0.000000 0.015000 0.000000
					CHANNELS 3 Xrotation Yrotation Zrotation
					End Site
					{
						OFFSET -0.000000 -0.100000 0.000000
					}
				}
			}
			JOINT mCollarLeft
			{
				OFFSET 0.085000 0.165000 -0.021000
				CHANNELS 3 Xrotation Yrotation Zrotation
				JOINT mShoulderLeft
				{
					OFFSET 0.079000 0.000000 -0.000000
					CHANNELS 3 Xrotation Yrotation Zrotation
					JOINT mElbowLeft
					{
						OFFSET 0.248000 0.000000 -0.000000
						CHANNELS 3 Xrotation Yrotation Zrotation
						JOINT mWristLeft
						{
							OFFSET 0.205000 0.000000 -0.000000
							CHANNELS 3 Xrotation Yrotation Zrotation
							JOINT L_HAND
							{
								OFFSET 0.050000 0.000000 0.010000
								CHANNELS 3 Xrotation Yrotation Zrotation
								End Site
								{
									OFFSET 0.000000 -0.100000 0.000000
								}
							}
						}
						JOINT L_LOWER_ARM
						{
							OFFSET 0.100000 -0.005000 -0.000000
							CHANNELS 3 Xrotation Yrotation Zrotation
							End Site
							{
								OFFSET 0.000000 -0.100000 0.000000
							}
						}
					}
					JOINT L_UPPER_ARM
					{
						OFFSET 0.120000 0.000000 -0.000000
						CHANNELS 3 Xrotation Yrotation Zrotation
						End Site
						{
							OFFSET 0.000000 -0.100000 0.000000
						}
					}
				}
				JOINT L_CLAVICLE
				{
					OFFSET 0.000000 0.020000 0.000000
					CHANNELS 3 Xrotation Yrotation Zrotation
					End Site
					{
						OFFSET -0.000000 -0.100000 0.000000
					}
				}
			}
			JOINT mCollarRight
			{
				OFFSET -0.085000 0.165000 -0.021000
				CHANNELS 3 Xrotation Yrotation Zrotation
				JOINT mShoulderRight
				{
					OFFSET -0.079000 0.000000 0.000000
					CHANNELS 3 Xrotation Yrotation Zrotation
					JOINT mElbowRight
					{
						OFFSET -0.248000 0.000000 0.000000
						CHANNELS 3 Xrotation Yrotation Zrotation
						JOINT mWristRight
						{
							OFFSET -0.205000 0.000000 0.000000
							CHANNELS 3 Xrotation Yrotation Zrotation
							JOINT R_HAND
							{
								OFFSET -0.050000 0.000000 0.010000
								CHANNELS 3 Xrotation Yrotation Zrotation
								End Site
								{
									OFFSET 0.000000 -0.100000 0.000000
								}
							}
						}
						JOINT R_LOWER_ARM
						{
							OFFSET -0.100000 -0.005000 0.000000
							CHANNELS 3 Xrotation Yrotation Zrotation
							End Site
							{
								OFFSET 0.000000 -0.100000 0.000000
							}
						}
					}
					JOINT R_UPPER_ARM
					{
						OFFSET -0.120000 0.000000 0.000000
						CHANNELS 3 Xrotation Yrotation Zrotation
						End Site
						{
							OFFSET 0.000000 -0.100000 0.000000
						}
					}
				}
				JOINT R_CLAVICLE
				{
					OFFSET 0.000000 0.020000 0.000000
					CHANNELS 3 Xrotation Yrotation Zrotation
					End Site
					{
						OFFSET -0.000000 -0.100000 0.000000
					}
				}
			}
			JOINT CHEST
			{
				OFFSET 0.000000 0.060000 -0.002000
				CHANNELS 3 Xrotation Yrotation Zrotation
				End Site
				{
					OFFSET -0.000000 -0.100000 0.000000
				}
			}
			JOINT LEFT_PEC
			{
				OFFSET 0.052000 0.052000 0.127000
				CHANNELS 3 Xrotation Yrotation Zrotation
				End Site
				{
					OFFSET -0.000000 -0.100000 0.000000
				}
			}
			JOINT RIGHT_PEC
			{
				OFFSET -0.052000 0.052000 0.127000
				CHANNELS 3 Xrotation Yrotation Zrotation
				End Site
				{
					OFFSET -0.000000 -0.100000 0.000000
				}
			}
			JOINT UPPER_BACK
			{
				OFFSET 0.000000 0.017253 0.000000
				CHANNELS 3 Xrotation Yrotation Zrotation
				End Site
				{
					OFFSET -0.000000 -0.100000 0.000000
				}
			}
		}
		JOINT BELLY
		{
			OFFSET 0.000000 0.060000 -0.002000
			CHANNELS 3 Xrotation Yrotation Zrotation
			End Site
			{
				OFFSET -0.000000 -0.100000 0.000000
			}
		}
		JOINT LOWER_BACK
		{
			OFFSET 0.000000 0.022848 -0.000000
			CHANNELS 3 Xrotation Yrotation Zrotation
			End Site
			{
				OFFSET -0.000000 -0.100000 0.000000
			}
		}
	}
	JOINT mHipRight
	{
		OFFSET -0.129000 -0.041000 0.034000
		CHANNELS 3 Xrotation Yrotation Zrotation
		JOINT mKneeRight
		{
			OFFSET 0.049000 -0.491000 -0.001000
			CHANNELS 3 Xrotation Yrotation Zrotation
			JOINT mAnkleRight
			{
				OFFSET -0.000000 -0.468000 -0.029000
				CHANNELS 3 Xrotation Yrotation Zrotation
				JOINT mFootRight
				{
					OFFSET 0.000000 -0.061000 0.112000
					CHANNELS 3 Xrotation Yrotation Zrotation
					JOINT mToeRight
					{
						OFFSET 0.000000 0.000000 0.109000
						CHANNELS 3 Xrotation Yrotation Zrotation
						End Site
						{
							OFFSET -0.000000 -0.100000 0.000000
						}
					}
				}
				JOINT R_FOOT
				{
					OFFSET 0.000000 -0.041000 0.077000
					CHANNELS 3 Xrotation Yrotation Zrotation
					End Site
					{
						OFFSET 0.000000 -0.100000 0.000000
					}
				}
			}
			JOINT R_LOWER_LEG
			{
				OFFSET -0.000000 -0.200000 -0.020000
				CHANNELS 3 Xrotation Yrotation Zrotation
				End Site
				{
					OFFSET -0.000000 -0.100000 0.000000
				}
			}
		}
		JOINT R_UPPER_LEG
		{
			OFFSET 0.050000 -0.220000 -0.020000
			CHANNELS 3 Xrotation Yrotation Zrotation
			End Site
			{
				OFFSET -0.000000 -0.100000 0.000000
			}
		}
	}
	JOINT mHipLeft
	{
		OFFSET 0.127000 -0.041000 0.034000
		CHANNELS 3 Xrotation Yrotation Zrotation
		JOINT mKneeLeft
		{
			OFFSET -0.046000 -0.491000 -0.001000
			CHANNELS 3 Xrotation Yrotation Zrotation
			JOINT mAnkleLeft
			{
				OFFSET 0.001000 -0.468000 -0.029000
				CHANNELS 3 Xrotation Yrotation Zrotation
				JOINT mFootLeft
				{
					OFFSET 0.000000 -0.061000 0.112000
					CHANNELS 3 Xrotation Yrotation Zrotation
					JOINT mToeLeft
					{
						OFFSET 0.000000 0.000000 0.109000
						CHANNELS 3 Xrotation Yrotation Zrotation
						End Site
						{
							OFFSET -0.000000 -0.100000 0.000000
						}
					}
				}
				JOINT L_FOOT
				{
					OFFSET 0.000000 -0.041000 0.077000
					CHANNELS 3 Xrotation Yrotation Zrotation
					End Site
					{
						OFFSET 0.000000 -0.100000 0.000000
					}
				}
			}
			JOINT L_LOWER_LEG
			{
				OFFSET -0.000000 -0.200000 -0.020000
				CHANNELS 3 Xrotation Yrotation Zrotation
				End Site
				{
					OFFSET -0.000000 -0.100000 0.000000
				}
			}
		}
		JOINT L_UPPER_LEG
		{
			OFFSET -0.050000 -0.220000 -0.020000
			CHANNELS 3 Xrotation Yrotation Zrotation
			End Site
			{
				OFFSET -0.000000 -0.100000 0.000000
			}
		}
	}
	JOINT PELVIS
	{
		OFFSET -0.000000 -0.020000 -0.010000
		CHANNELS 3 Xrotation Yrotation Zrotation
		End Site
		{
			OFFSET -0.000000 -0.100000 0.000000
		}
	}
	JOINT BUTT
	{
		OFFSET -0.000000 -0.100000 -0.060000
		CHANNELS 3 Xrotation Yrotation Zrotation
		End Site
		{
			OFFSET -0.000000 -0.100000 0.000000
		}
	}
}
MOTION
Frames: 8
Frame Time: 0.022222
0.000000 1.067000 0.063274 -0.544336 0.000000 0.000000 0.664367 -0.003829 -0.048461 12.469515 -0.073429 -0.490356 16.227356 -0.000002 -0.000001 25.491239 -0.000003 -0.000001 -179.999991 -0.000044 0.000003 0.000002 0.000000 0.000000 0.000002 0.000000 0.000000 0.000002 0.000000 0.000000 -0.000002 0.000000 0.000000 -44.881733 4.711044 -5.972144 60.641281 -52.157705 -48.776512 0.000004 -45.154930 0.000002 20.821169 9.849011 23.559254 0.000004 0.000000 0.000002 0.000003 0.000001 -0.000001 -0.000000 -0.000000 0.000000 -0.000001 -0.000000 0.000000 -27.622555 13.248389 6.809980 11.602500 37.527634 36.519010 0.000068 80.999787 -0.000089 -24.405359 -6.165398 59.719028 0.000001 0.000001 0.000000 -0.000002 -0.000003 -0.000001 -0.000002 0.000001 -0.000002 0.000000 -0.000000 0.000000 -0.000001 0.000001 -0.000000 -0.000002 0.000000 -0.000000 -0.000001 0.000001 -0.000000 -0.000002 0.000001 -0.000000 -0.000000 -0.000000 0.000000 -0.000000 -0.000000 0.000000 -0.006240 0.005974 -3.161587 -1.163999 -0.005192 0.072076 0.000004 -0.000000 -0.000001 0.000008 -0.000007 0.000016 -0.000000 0.000000 -0.000000 0.000007 -0.000007 0.000014 0.000000 -0.000000 0.000000 -0.000000 0.000003 0.000137 0.844156 8.850770 4.112264 -1.801947 -0.012483 0.110918 3.686766 0.012160 0.574212 0.000009 -0.000011 0.000019 -0.000000 0.000001 -0.000000 0.000009 -0.000012 0.000020 -0.000001 -0.000004 -0.000001 0.000000 0.000001 -0.000101 -0.000000 -0.000000 0.000000 -0.000000 -0.000000 0.000000 
0.000000 1.067000 0.062665 -0.539098 0.000000 0.000000 0.664366 -0.003829 -0.048461 12.469517 -0.073430 -0.490356 16.227356 -0.000002 -0.000001 25.491246 -0.000003 -0.000001 -179.999991 -0.000044 0.000002 -0.000000 0.000000 0.000000 -0.000000 0.000000 0.000000 -0.000000 0.000000 0.000000 -0.000001 -0.000000 0.000000 -44.883543 4.717475 -6.073463 60.975510 -51.897092 -48.523371 0.000002 -45.609456 0.000002 21.545743 10.146401 23.445990 0.000000 -0.000003 0.000000 0.000003 -0.000002 -0.000001 -0.000001 -0.000000 -0.000001 -0.000002 -0.000000 0.000000 -27.221449 13.302287 6.720061 10.862073 36.772707 37.939338 0.000052 80.096693 -0.000070 -24.405359 -6.165400 59.719028 -0.000001 -0.000000 -0.000000 -0.000000 -0.000002 -0.000001 -0.000001 -0.000002 0.000000 0.000000 -0.000001 0.000000 -0.000002 0.000000 0.000000 -0.000002 0.000000 0.000000 -0.000002 0.000001 0.000000 -0.000002 0.000000 -0.000000 0.000000 -0.000000 0.000000 0.000000 -0.000000 0.000000 -0.006240 0.005974 -3.161587 -1.152434 -0.005133 0.071361 0.000002 -0.000001 0.000000 0.000008 -0.000007 0.000013 -0.000000 0.000000 0.000000 0.000007 -0.000007 0.000016 -0.000000 -0.000000 -0.000000 -0.000000 0.000003 0.000137 0.844156 8.850768 4.112264 -1.784044 -0.012341 0.109818 3.686765 0.012164 0.574211 0.000017 -0.000014 0.000020 -0.000000 0.000000 -0.000001 0.000017 -0.000013 0.000021 -0.000001 -0.000004 -0.000000 -0.000000 0.000001 -0.000100 0.000000 -0.000000 -0.000000 0.000000 -0.000000 -0.000000 
0.000000 1.067000 0.061976 -0.533164 0.000000 0.000000 0.664366 -0.003829 -0.048461 12.469517 -0.073429 -0.490356 16.227362 -0.000002 -0.000001 25.491243 -0.000003 -0.000001 -179.999991 -0.000044 0.000003 0.000002 0.000000 0.000000 0.000002 0.000000 0.000000 0.000002 0.000000 -0.000000 -0.000001 -0.000000 -0.000000 -44.884745 4.721887 -6.179101 61.332558 -51.642872 -48.229417 0.000001 -46.066720 0.000002 22.222131 10.415384 23.312448 0.000003 -0.000000 -0.000002 -0.000002 0.000002 -0.000002 -0.000002 0.000000 0.000000 -0.000002 0.000000 0.000000 -26.777734 13.357948 6.619417 10.077078 35.919302 39.483251 0.000034 79.097552 -0.000055 -24.405360 -6.165400 59.719035 0.000001 -0.000002 -0.000001 -0.000001 -0.000002 -0.000001 -0.000002 -0.000002 0.000002 0.000001 0.000000 0.000001 -0.000001 0.000000 0.000000 -0.000001 -0.000000 0.000000 -0.000001 0.000000 0.000000 -0.000001 0.000000 0.000000 0.000000 0.000000 0.000000 0.000000 0.000000 0.000000 -0.006240 0.005974 -3.161587 -1.139339 -0.005066 0.070553 0.000003 -0.000001 0.000002 0.000007 -0.000007 0.000013 0.000000 -0.000000 0.000000 0.000006 -0.000008 0.000016 -0.000001 -0.000001 0.000000 -0.000000 0.000003 0.000137 0.844156 8.850770 4.112264 -1.763773 -0.012183 0.108571 3.686767 0.012163 0.574209 0.000011 -0.000013 0.000021 0.000000 -0.000000 -0.000000 0.000011 -0.000014 0.000022 -0.000002 -0.000003 -0.000000 0.000000 0.000001 -0.000100 -0.000000 -0.000000 -0.000000 -0.000000 -0.000000 -0.000000 
0.000000 1.067000 0.061208 -0.526565 0.000000 0.000000 0.664366 -0.003829 -0.048461 12.469517 -0.073430 -0.490356 16.227356 -0.000002 -0.000001 25.491239 -0.000003 -0.000001 -179.999991 -0.000044 0.000002 -0.000000 0.000000 0.000000 -0.000000 0.000000 0.000000 -0.000000 0.000000 0.000000 -0.000002 -0.000000 0.000000 -44.885374 4.724432 -6.288288 61.708266 -51.395060 -47.899990 0.000006 -46.524773 0.000002 22.852300 10.657236 23.161334 -0.000002 0.000001 0.000001 0.000002 0.000002 0.000000 -0.000000 0.000001 0.000000 -0.000001 -0.000001 0.000000 -26.296590 13.414728 6.509217 9.265823 34.973362 41.125672 0.000043 78.013977 -0.000041 -24.405359 -6.165397 59.719028 -0.000001 0.000001 0.000001 -0.000001 -0.000001 -0.000002 -0.000001 0.000002 0.000003 0.000000 -0.000001 -0.000000 -0.000001 0.000000 -0.000000 -0.000002 0.000000 -0.000000 -0.000002 0.000000 -0.000000 -0.000002 0.000000 -0.000000 0.000000 -0.000000 -0.000000 0.000000 -0.000000 -0.000000 -0.006240 0.005974 -3.161587 -1.124780 -0.004993 0.069653 0.000003 -0.000001 0.000000 0.000009 -0.000008 0.000015 0.000000 0.000000 0.000000 0.000006 -0.000009 0.000016 -0.000001 -0.000000 0.000000 -0.000000 0.000003 0.000137 0.844156 8.850769 4.112264 -1.741235 -0.012005 0.107185 3.686768 0.012161 0.574210 0.000006 -0.000011 0.000021 0.000000 -0.000000 -0.000000 0.000008 -0.000011 0.000022 -0.000001 -0.000003 0.000000 0.000000 0.000002 -0.000100 -0.000000 -0.000000 -0.000000 -0.000000 -0.000000 -0.000000 
0.000000 1.067000 0.060367 -0.519331 0.000000 0.000000 0.664367 -0.003829 -0.048461 12.469515 -0.073430 -0.490356 16.227358 -0.000002 -0.000001 25.491244 -0.000003 -0.000001 -179.999991 -0.000044 0.000003 -0.000000 0.000000 0.000000 -0.000000 0.000000 0.000000 -0.000000 0.000000 -0.000000 -0.000001 0.000000 0.000000 -44.885503 4.725267 -6.400251 62.098769 -51.153722 -47.540203 -0.000001 -46.981716 0.000001 23.438054 10.873308 22.995225 -0.000000 -0.000001 -0.000001 0.000001 -0.000002 0.000000 -0.000002 -0.000001 -0.000000 -0.000002 -0.000000 0.000000 -25.783293 13.472024 6.390638 8.445382 33.941983 42.842601 0.000036 76.857742 -0.000045 -24.405364 -6.165399 59.719035 0.000000 0.000002 0.000001 -0.000001 -0.000000 -0.000001 0.000001 0.000000 0.000002 0.000001 -0.000001 -0.000000 0.000000 0.000000 0.000000 0.000001 0.000000 0.000000 0.000000 0.000000 0.000000 0.000000 0.000000 0.000000 -0.000000 -0.000000 -0.000000 -0.000000 -0.000000 -0.000000 -0.006240 0.005974 -3.161587 -1.108824 -0.004913 0.068668 0.000001 -0.000002 0.000002 0.000012 -0.000008 0.000017 -0.000000 0.000000 -0.000000 0.000009 -0.000007 0.000016 -0.000001 -0.000001 0.000000 -0.000000 0.000003 0.000137 0.844156 8.850770 4.112264 -1.716535 -0.011813 0.105664 3.686769 0.012163 0.574211 0.000006 -0.000012 0.000026 -0.000000 0.000001 -0.000000 0.000006 -0.000012 0.000026 -0.000001 -0.000004 -0.000000 0.000000 0.000002 -0.000101 -0.000000 -0.000000 -0.000000 -0.000000 -0.000000 -0.000000 
0.000000 1.067000 0.059456 -0.511489 0.000000 0.000000 0.664366 -0.003829 -0.048461 12.469514 -0.073429 -0.490356 16.227362 -0.000002 -0.000001 25.491238 -0.000003 -0.000001 -179.999991 -0.000044 0.000003 -0.000002 -0.000000 -0.000000 -0.000002 -0.000000 -0.000000 -0.000002 -0.000000 -0.000000 -0.000001 -0.000000 -0.000000 -44.885186 4.724541 -6.514228 62.500288 -50.918968 -47.155162 0.000008 -47.435606 0.000003 23.981113 11.064958 22.816554 -0.000001 0.000001 0.000002 -0.000002 0.000001 0.000001 0.000002 0.000000 0.000001 0.000003 -0.000000 0.000001 -25.243095 13.529257 6.264898 7.631256 32.833498 44.611251 0.000022 75.640677 -0.000034 -24.405359 -6.165397 59.719028 -0.000000 0.000003 -0.000001 -0.000000 0.000001 -0.000002 -0.000001 0.000002 0.000002 -0.000000 -0.000001 -0.000000 0.000000 0.000000 0.000000 0.000000 0.000000 0.000000 0.000000 0.000000 0.000000 0.000000 0.000000 0.000000 -0.000000 -0.000000 0.000000 -0.000000 -0.000000 0.000000 -0.006240 0.005974 -3.161586 -1.091538 -0.004826 0.067600 0.000001 0.000001 -0.000001 0.000005 -0.000007 0.000014 -0.000000 -0.000000 0.000000 0.000004 -0.000007 0.000017 -0.000000 0.000000 -0.000000 -0.000000 0.000003 0.000136 0.844156 8.850769 4.112264 -1.689776 -0.011603 0.104020 3.686766 0.012163 0.574211 0.000007 -0.000012 0.000020 -0.000000 0.000000 0.000000 0.000004 -0.000012 0.000022 -0.000001 -0.000002 -0.000000 0.000000 0.000002 -0.000100 0.000000 -0.000000 -0.000000 0.000000 -0.000000 -0.000000 
0.000000 1.067000 0.058478 -0.503072 0.000000 0.000000 0.664366 -0.003829 -0.048461 12.469518 -0.073429 -0.490356 16.227362 -0.000002 -0.000001 25.491241 -0.000003 -0.000001 -179.999991 -0.000044 0.000003 -0.000002 0.000000 0.000000 -0.000002 0.000000 0.000000 -0.000002 0.000000 -0.000000 -0.000001 -0.000000 0.000000 -44.884445 4.722416 -6.629447 62.909191 -50.690966 -46.749745 0.000001 -47.884489 0.000003 24.483117 11.233563 22.627729 -0.000003 -0.000001 0.000001 -0.000001 0.000001 -0.000001 -0.000001 0.000000 0.000001 0.000001 -0.000000 0.000001 -24.681249 13.585879 6.133226 6.837085 31.657548 46.410394 0.000027 74.374804 -0.000034 -24.405366 -6.165396 59.719035 0.000000 0.000003 -0.000000 0.000001 -0.000002 -0.000002 -0.000001 0.000003 0.000001 0.000001 -0.000002 -0.000000 -0.000001 -0.000000 0.000000 0.000000 -0.000000 0.000000 -0.000001 0.000000 0.000000 -0.000001 -0.000000 -0.000000 0.000000 0.000000 -0.000000 0.000000 0.000000 -0.000000 -0.006240 0.005974 -3.161586 -1.072988 -0.004733 0.066454 0.000002 -0.000000 0.000000 0.000009 -0.000009 0.000014 0.000000 0.000000 0.000000 0.000007 -0.000008 0.000015 -0.000001 -0.000000 0.000000 -0.000000 0.000003 0.000136 0.844156 8.850769 4.112264 -1.661058 -0.011381 0.102254 3.686765 0.012161 0.574210 0.000009 -0.000013 0.000023 -0.000000 0.000001 -0.000000 0.000009 -0.000013 0.000023 -0.000001 -0.000003 0.000000 0.000000 0.000002 -0.000099 0.000000 -0.000000 -0.000000 0.000000 -0.000000 -0.000000 
0.000000 1.067000 0.057435 -0.494106 0.000000 0.000000 0.664367 -0.003829 -0.048461 12.469516 -0.073429 -0.490356 16.227356 -0.000002 -0.000001 25.491246 -0.000003 -0.000001 -179.999991 -0.000044 0.000003 0.000002 0.000000 0.000000 0.000002 0.000000 0.000000 0.000002 0.000000 0.000000 -0.000001 -0.000000 0.000000 -44.883369 4.719041 -6.745137 63.321926 -50.469958 -46.328797 -0.000002 -48.326416 0.000001 24.945630 11.380556 22.431048 0.000001 -0.000002 0.000001 -0.000001 0.000000 -0.000001 -0.000002 -0.000000 -0.000000 0.000001 -0.000000 -0.000000 -24.103089 13.641379 5.996875 6.074487 30.425061 48.220425 0.000037 73.072205 -0.000028 -24.405364 -6.165397 59.719028 -0.000000 -0.000000 -0.000000 -0.000000 -0.000000 0.000000 0.000002 -0.000001 0.000000 -0.000000 -0.000001 -0.000000 -0.000001 0.000000 0.000000 -0.000001 -0.000000 0.000000 0.000000 0.000000 0.000000 0.000000 0.000000 -0.000000 -0.000000 0.000000 -0.000000 -0.000000 0.000000 -0.000000 -0.006240 0.005974 -3.161587 -1.053240 -0.004635 0.065235 0.000001 -0.000001 0.000000 0.000004 -0.000008 0.000011 -0.000000 0.000000 0.000000 0.000004 -0.000008 0.000013 -0.000000 -0.000001 0.000000 -0.000000 0.000003 0.000137 0.844156 8.850770 4.112264 -1.630487 -0.011145 0.100372 3.686766 0.012164 0.574211 0.000007 -0.000014 0.000028 -0.000000 0.000000 -0.000001 0.000007 -0.000014 0.000028 -0.000000 -0.000002 0.000000 0.000000 0.000002 -0.000100 -0.000000 -0.000000 -0.000000 -0.000000 -0.000000 -0.000000 
